inDegrees=no
num_controls=7
num_derivatives=13
num_iterations=119
num_multipliers=7
num_parameters=0
num_slacks=7
num_states=26
objective=0.444937
objective_accelerations=0.058966
objective_balance=0.003553
objective_effort=0.023372
objective_height=0.353562
objective_ligament=0.005485
solver_duration=1716.396711
status=Solve_Succeeded
success=true
DataType=double
version=3
OpenSimVersion=4.5
endheader
time	/jointset/ground_pelvis/pelvis_tilt/value	/jointset/ground_pelvis/pelvis_tx/value	/jointset/ground_pelvis/pelvis_ty/value	/jointset/hip_l/hip_flexion_l/value	/jointset/hip_l/hip_adduction_l/value	/jointset/hip_l/hip_rotation_l/value	/jointset/back/lumbar_extension/value	/jointset/patellofemoral_l/patellar_flexion_l/value	/jointset/knee_l/knee_flexion_l/value	/jointset/knee_l/knee_adduction_l/value	/jointset/knee_l/knee_rotation_l/value	/jointset/ankle_l/ankle_angle_l/value	/jointset/subtalar_l/subtalar_angle_l/value	/jointset/ground_pelvis/pelvis_tilt/speed	/jointset/ground_pelvis/pelvis_tx/speed	/jointset/ground_pelvis/pelvis_ty/speed	/jointset/hip_l/hip_flexion_l/speed	/jointset/hip_l/hip_adduction_l/speed	/jointset/hip_l/hip_rotation_l/speed	/jointset/back/lumbar_extension/speed	/jointset/patellofemoral_l/patellar_flexion_l/speed	/jointset/knee_l/knee_flexion_l/speed	/jointset/knee_l/knee_adduction_l/speed	/jointset/knee_l/knee_rotation_l/speed	/jointset/ankle_l/ankle_angle_l/speed	/jointset/subtalar_l/subtalar_angle_l/speed	/forceset/tau_hip_flexion_l	/forceset/tau_hip_adduction_l	/forceset/tau_hip_rotation_l	/forceset/tau_knee_flexion_l	/forceset/tau_ankle_angle_l	/forceset/tau_subtalar_angle_l	/forceset/tau_lumbar_extension	lambda_cid13_p0	lambda_cid13_p1	lambda_cid13_p2	lambda_cid13_p3	lambda_cid13_p4	lambda_cid13_p5	lambda_cid14_p0	/jointset/ground_pelvis/pelvis_tilt/accel	/jointset/ground_pelvis/pelvis_tx/accel	/jointset/ground_pelvis/pelvis_ty/accel	/jointset/hip_l/hip_flexion_l/accel	/jointset/hip_l/hip_adduction_l/accel	/jointset/hip_l/hip_rotation_l/accel	/jointset/back/lumbar_extension/accel	/jointset/patellofemoral_l/patellar_flexion_l/accel	/jointset/knee_l/knee_flexion_l/accel	/jointset/knee_l/knee_adduction_l/accel	/jointset/knee_l/knee_rotation_l/accel	/jointset/ankle_l/ankle_angle_l/accel	/jointset/subtalar_l/subtalar_angle_l/accel	gamma_cid13_p0	gamma_cid13_p1	gamma_cid13_p2	gamma_cid13_p3	gamma_cid13_p4	gamma_cid13_p5	gamma_cid14_p0
0	-0.03912466919247628	0.06873655523017594	0.8959346706187227	0.1955287580552426	-0.3221754338361495	-0.4800247241527708	-0.1379045077516729	0.07015288079084872	0.07015288079084844	-0.1745328574488169	-0.1146593003797224	-0.06701059314715049	0.003599993355066605	0	0	0	0	0	0	0	0	0	0	0	0	0	0.1075503360731484	-0.1033037039271689	-0.02978890771686698	-0.2357403527240689	0.1926046930210001	-0.01191339531859928	-0.05236094683786299	26.33761960522491	-2.2325128117333	3.212538903386114	-0.9171448780304652	-514.8505782974936	-83.38790855926625	-39.83110841903697	-4.518523176065773	-1.858642923822435	-0.9895677825145291	12.78189520879035	-2.121407059727761	3.38861906548352	-2.845755293546515	10.46699493237515	10.46699493237699	0.7591841897441894	-0.8833409612519417	2.433175842346875	-1.004294115698257	-3.208631158315739e-08	1.120059683282889e-07	1.285461719791521e-07	1.654194254639668e-08	-3.40058478248013e-08	-5.219609832143992e-08	-7.395433141705805e-09
0.01	-0.03933997417549519	0.06864470407623245	0.8958866303614155	0.196147048190606	-0.3222798438788321	-0.4798544610740001	-0.1380527482666269	0.0706615126930948	0.07066151269309467	-0.1744983556012779	-0.1146971485341232	-0.06689394667335499	0.003548827330829597	-0.04283492200113434	-0.01830452910849368	-0.009577553254134528	0.1231094662220851	-0.02077714033360984	0.03391977096989651	-0.0293814817557189	0.1012854674732106	0.1012854674732107	0.006886144588326846	-0.007523128873305439	0.02321387807332622	-0.01018228851608816	0.1020468644296916	-0.0999945578102029	-0.02865619445974965	-0.2280725559145656	0.1826057099392651	-0.009858197370070815	-0.04782111587710185	23.17543573028501	-2.670431387783751	3.395461061320418	0.6661517554113539	-515.6532227008165	-84.13491416100516	-39.84144220001105	-4.132076232494935	-1.806499343982218	-0.9372811669382595	11.9931768025278	-2.04016867579021	3.373714549321047	-2.944351431291607	9.893187187493123	9.893187187491938	0.6512300580412745	-0.679810278462244	2.248182411739829	-1.017591175132807	-7.087863840315783e-08	1.484493688481081e-07	2.105351965530239e-07	5.221126831634671e-08	-2.588043551048517e-07	-1.026632890780175e-07	-1.265891141749062e-08
0.02	-0.03997684828259794	0.06837177934328011	0.8957437281575518	0.1979799738829112	-0.322588885555973	-0.4793489885982139	-0.1384868049620797	0.07216977217661209	0.07216977217661154	-0.174395412214908	-0.114808830262876	-0.06654862369444332	0.003397359430317954	-0.08431382481656996	-0.03621471580177119	-0.01897238931128657	0.2429271113885797	-0.04092632689172413	0.0670418794029258	-0.05716323609971632	0.1999255162543848	0.199925516254374	0.01368830776322606	-0.014766714870307	0.04573530102322508	-0.02006037525492571	0.0965433927862271	-0.09668541169323912	-0.0275234812026325	-0.2204047591050699	0.172606726857526	-0.007802999421546928	-0.0432812849163418	20.07832062573883	-3.120379858461474	3.581029550173481	2.08789544570701	-515.5055159663783	-84.71399993986795	-39.87186489115813	-4.247319338926013	-1.779774440779217	-0.9530243431180316	12.12353099767226	-1.995816304628663	3.229086558110076	-2.525809811202208	9.937911193967867	9.937911193967507	0.742387907058638	-0.8274323859911709	2.294684817661382	-0.9434537602481564	-1.096709652231583e-07	1.848927693679273e-07	2.925242211268957e-07	8.788059408629675e-08	-4.83602862384902e-07	-1.53130479834595e-07	-1.792238969327545e-08
0.03	-0.04102261107034628	0.06792194661939285	0.8955074777323181	0.2009956984039759	-0.3230961003004185	-0.4785166086962027	-0.1391903357911901	0.07465165885980886	0.07465165885980943	-0.1742246003296433	-0.1149919665722834	-0.06598115934712079	0.00314902296513199	-0.1246360418412109	-0.05366109744283944	-0.0282693482389846	0.3596647743167721	-0.06039494009747363	0.09929549942821735	-0.08330858059014276	0.2959890819649591	0.2959890819649624	0.02045687462252213	-0.0218054744836091	0.06765671173938026	-0.02953148685600816	0.0920409575734497	-0.0935598958395616	-0.02676087031695541	-0.2160195362768541	0.1674345902842304	-0.007050663363602973	-0.03953881172751205	18.48053321078937	-3.23773199482981	3.680121929867217	2.565478323909149	-515.39702820523	-84.40544123743557	-39.92113545999381	-3.894281242854715	-1.713442575646378	-0.9168771719745274	11.36591128567684	-1.904184224523197	3.202671223405322	-2.623744398105825	9.371172102321589	9.3711721023239	0.6415771373743591	-0.633801330804151	2.125739720728804	-0.9376873549377932	-1.375939077720076e-07	2.078409053543097e-07	3.476807577481186e-07	1.161475540457338e-07	-6.532703736098735e-07	-1.878313465499862e-07	-2.094286665377963e-08
